<svg version="1.1" id="Warstwa_1" xmlns="http://www.w3.org/2000/svg" x="0" y="0" viewBox="0 0 4000 4000" style="enable-background:new 0 0 4000 4000" xml:space="preserve"><style>.st7{stroke:#000;stroke-width:8;stroke-miterlimit:10}</style><switch><g><path class="st7" d="m1838.8 711.01-140.25 367-111.85-292.69c80.46-32.6 164.79-57.65 252.1-74.31z"/><path class="st7" d="M1704.27 1093.01h-11.45l5.73-15.01zM3060.46 2986.68a1358.003 1358.003 0 0 1-147.92 130.52l-49.87-130.52h197.79z"/><path class="st7" d="M3447.01 2039.84c0 368.63-147.43 702.84-386.55 946.85h-197.78l-723.69-1893.67h921.47c239.12 243.98 386.55 578.19 386.55 946.82zM3060.46 1093.01h-921.47l-5.73-15.01 144.7-378.66c304.83 41.4 577.39 184.35 782.5 393.67z"/><path class="st7" d="M2138.98 1093.01h-11.45l5.73-15.01zM1586.69 785.31C1478.07 829.3 1376.45 886.96 1284 956.2V686.94h265.1l37.59 98.37zM1847.98 686.94l-9.19 24.06a1340.788 1340.788 0 0 0-252.1 74.31l-37.58-98.37h298.87zM2277.96 699.34 2133.26 1078l-147.8-386.76c35.84-2.86 72.09-4.3 108.66-4.3 62.35 0 123.72 4.23 183.84 12.4z"/><path style="fill:none;stroke:#000;stroke-width:8;stroke-miterlimit:10" d="M1983.82 686.94h102.73"/><path class="st7" d="M2912.54 3117.21c-108.32 82.42-229.45 148.87-359.86 195.85l-124.74-326.37h434.73l49.87 130.52zM1985.45 691.25c-49.7 3.94-98.63 10.57-146.66 19.76l9.19-24.06h135.84l1.63 4.3zM2862.67 2986.68h-434.73L1915.9 1646.77l211.63-553.76h11.45zM1698.55 1078l-5.73 15.01h-408.81V956.2c92.45-69.23 194.07-126.9 302.69-170.89L1698.55 1078zM1284.01 3123.5v176.8l-4.86 12.75H844.41l124.72-326.37h158.64c48.46 49.48 100.7 95.23 156.24 136.82z"/><path class="st7" d="M1284.01 2986.68v136.81a1359.161 1359.161 0 0 1-156.24-136.81h156.24z"/><path class="st7" d="m1403.86 2986.68-66.74 174.62a1325.322 1325.322 0 0 1-53.12-37.81v-136.81h119.86zM1127.77 2986.68H969.13l48.59-127.14a1355.14 1355.14 0 0 0 110.05 127.14z"/><path class="st7" d="M1284.01 2162.75v823.93h-156.24c-39.24-40.03-76.01-82.5-110.05-127.14l266.29-696.79zM2133.26 1078l-5.73 15.01h-423.25l-5.73-15.01 140.25-367c48.03-9.19 96.96-15.82 146.66-19.76l147.8 386.76zM2127.53 1093.01l-211.63 553.76-211.63-553.76zM1337.12 3161.31 1284 3300.3v-176.8c17.38 13.02 35.09 25.64 53.12 37.81zM1705.72 2196.79v.02l-301.86 789.87h-119.85v-823.93l204.34-534.73z"/></g></switch></svg>