<?xml version="1.0" standalone="no"?>
<!DOCTYPE svg PUBLIC "-//W3C//DTD SVG 20010904//EN"
 "http://www.w3.org/TR/2001/REC-SVG-20010904/DTD/svg10.dtd">
<svg version="1.0" xmlns="http://www.w3.org/2000/svg"
 width="700.000000pt" height="700.000000pt" viewBox="0 0 700.000000 700.000000"
 preserveAspectRatio="xMidYMid meet">
<metadata>
Created by potrace 1.14, written by Peter Selinger 2001-2017
</metadata>
<g transform="translate(0.000000,700.000000) scale(0.100000,-0.100000)"
fill="#000000" stroke="none">
<path d="M2240 5443 l0 -363 369 0 369 0 10 -27 c6 -16 38 -100 72 -188 34
-88 111 -290 171 -450 98 -259 143 -377 170 -440 10 -25 160 -421 201 -530 16
-44 33 -89 38 -100 5 -11 62 -157 126 -325 63 -168 127 -334 141 -370 13 -36
37 -99 53 -140 16 -41 40 -104 53 -140 14 -36 96 -249 182 -475 86 -225 182
-476 212 -557 l56 -146 26 10 c14 6 45 19 68 29 24 11 46 19 49 19 3 0 61 27
127 61 310 155 577 375 810 666 31 40 57 76 57 82 0 5 3 11 8 13 27 11 189
300 247 443 94 228 144 427 174 695 13 113 5 430 -14 559 -54 378 -201 737
-431 1057 -308 429 -785 759 -1292 895 -42 11 -86 22 -97 25 -58 12 -73 15
-105 20 -19 2 -46 7 -60 10 -14 2 -36 6 -50 9 -76 15 -259 18 -962 19 l-778 1
0 -362z"/>
<path d="M2595 4145 c-4 -11 -11 -29 -16 -40 -4 -11 -20 -51 -34 -90 -14 -38
-29 -79 -34 -90 -8 -16 -187 -484 -281 -735 -54 -144 -116 -306 -145 -380 -18
-47 -70 -182 -115 -300 -265 -695 -392 -1027 -400 -1045 -8 -18 -100 -264
-100 -268 0 -1 174 -2 387 -2 376 0 386 1 394 20 8 18 157 409 294 770 31 83
72 188 90 235 18 47 52 135 74 195 23 61 46 119 51 130 4 11 58 152 120 313
79 208 109 299 104 315 -3 12 -22 63 -41 112 -19 50 -44 115 -55 145 -11 30
-24 64 -29 75 -5 11 -61 157 -124 324 -132 347 -131 344 -140 316z"/>
</g>
</svg>
